<svg width="245" height="138" viewBox="0 0 245 138" fill="none" xmlns="http://www.w3.org/2000/svg">
<path d="M216.806 94.9083C216.557 94.5031 214.071 92.577 213.467 92.0859L202.625 83.3492L147.033 38.3716L128.864 23.6568C127.668 22.6988 126.485 21.7361 125.315 20.7674C124.538 20.124 123.069 18.84 122.159 18.3563C119.89 19.9657 117.662 21.8924 115.59 23.5998L105.924 31.5039L70.863 59.9259L39.3624 85.3424L30.0434 92.8749C29.0049 93.7262 27.2996 94.9734 26.4348 95.824L99.4809 95.8341C106.151 95.8441 112.932 95.8227 119.591 95.8824C119.646 95.0519 119.604 93.8517 119.53 93.0231C117.498 92.95 113.935 93.0117 111.768 93.0111L96.9846 93.003L55.7833 93.0319C48.9968 93.0332 41.5703 93.1151 34.8515 93.0077C35.6197 92.2322 37.1848 91.0173 38.1361 90.2585C39.877 88.8866 41.5951 87.5046 43.2904 86.1132L65.6477 68.0387L101.017 39.4128L110.717 31.5516C114.463 28.4871 118.199 25.3809 122.186 22.4123C123.804 23.4629 126.334 25.6178 127.867 26.8401L139.495 36.2684L167.946 59.3228L196.138 82.1746L204.769 89.1556C206.043 90.1834 208.39 91.9632 209.379 93.0037L205.338 93.0117L187.615 93.0144C184.937 93.0144 181.215 92.9534 178.611 93.0238C178.608 93.9657 178.577 94.9579 178.616 95.8965L206.019 95.9045C209.653 95.9018 214.446 95.9884 217.969 95.9106C217.639 95.6228 217.16 95.1746 216.807 94.9096L216.806 94.9083Z" fill="#2D328F"/>
<path d="M119.767 65.1305C120.668 65.3318 121.543 65.4022 122.507 65.3874C129.269 65.0413 131.284 61.0389 130.858 57.7912C130.069 51.7923 126.025 46.2335 123.025 40.5157C122.856 40.189 122.664 39.7938 122.397 39.4953L122.16 39.4007C121.188 40.7431 120.483 42.4639 119.673 43.8694C117.02 48.4695 111.214 57.4497 114.619 62.0438C115.599 63.3668 117.342 64.5904 119.766 65.1305H119.767ZM115.766 58.6063C116.052 58.723 117.156 59.828 117.303 60.04C117.82 60.7886 121.186 63.3272 120.72 63.9538C115.968 64.3825 114.761 60.4874 115.767 58.6063H115.766Z" fill="#2D328F"/>
<path d="M177.821 74.3918C165.26 64.1758 152.7 53.9592 140.139 43.7432L128.083 33.8781L124.461 30.9256C123.859 30.4379 122.866 29.5825 122.149 29.1867C121.807 29.4624 121.466 29.7382 121.124 30.0132C120.033 30.7854 118.576 32.0392 117.621 32.8222L116.426 33.8003C112.52 36.9487 108.614 40.0964 104.708 43.2447C102.494 44.9937 100.289 46.746 98.1746 48.5111C98.2176 50.7377 98.2444 52.9643 98.2551 55.1916C98.2585 55.9335 98.2605 56.6762 98.2605 57.4182C96.0433 57.4457 93.8261 57.4732 91.6089 57.5007C91.6189 55.6035 91.6786 53.6331 91.6297 51.742C89.6835 53.2756 87.7373 54.8092 85.7911 56.3434C85.8166 59.6649 85.8421 62.9857 85.8669 66.3072L91.7746 66.2964C91.741 65.3431 91.7075 64.3891 91.6746 63.4358C93.8187 63.4379 95.9628 63.4399 98.1076 63.4419C98.1022 64.4073 98.0968 65.3733 98.0915 66.3387L104.06 66.336C104.175 65.0298 104.057 63.0769 104.048 61.7238C104.009 58.2896 104.005 54.8554 104.037 51.4219C105.366 50.3311 106.698 49.2436 108.032 48.1588C112.706 44.357 117.411 40.5921 122.145 36.8641C122.462 37.1097 122.78 37.3552 123.097 37.6007C136.03 47.6154 148.714 57.9515 161.15 68.6076C135.405 68.4647 109.66 68.4472 83.914 68.5552C79.9384 68.572 75.9636 68.5915 71.9893 68.6143C69.7788 70.3277 66.7794 72.5583 64.7715 74.3059C68.2855 74.3643 72.0645 74.3294 75.5939 74.3314L94.6573 74.3401C122.379 74.3576 150.1 74.375 177.822 74.3918H177.821Z" fill="#C1242E"/>
<path d="M123.572 92.1342C123.687 92.0249 123.79 91.9169 123.881 91.8109C123.973 91.7049 124.055 91.5995 124.128 91.4962C123.987 91.3687 123.871 91.2581 123.777 91.1635C123.682 91.0695 123.611 90.9951 123.563 90.9401C123.453 91.0494 123.349 91.1574 123.248 91.2634C123.148 91.3701 123.049 91.4687 122.952 91.56C123.025 91.6452 123.113 91.735 123.216 91.829C123.319 91.9236 123.438 92.0249 123.572 92.1342Z" fill="#C52430"/>
<path d="M124.848 91.9974C125.067 91.7847 125.25 91.5721 125.395 91.3594C125.256 91.2259 125.138 91.1132 125.044 91.0219C124.95 90.9307 124.879 90.8576 124.83 90.8032C124.715 90.9307 124.607 91.0481 124.507 91.1541C124.406 91.2608 124.314 91.3534 124.229 91.4325C124.308 91.5238 124.397 91.615 124.498 91.7062C124.598 91.7975 124.715 91.8947 124.848 91.9981V91.9974Z" fill="#C52430"/>
<path d="M127.437 97.1845C127.328 97.2939 127.223 97.4019 127.123 97.5079C127.022 97.6139 126.923 97.7132 126.826 97.8044C126.899 97.8896 126.987 97.9788 127.09 98.0734C127.194 98.1674 127.313 98.2693 127.446 98.3787C127.561 98.2693 127.665 98.1613 127.756 98.0553C127.847 97.9486 127.929 97.844 128.002 97.7407C127.862 97.6132 127.745 97.5018 127.651 97.4079C127.557 97.3133 127.486 97.2395 127.437 97.1845Z" fill="#C52430"/>
<path d="M128.705 97.0476C128.589 97.1751 128.481 97.2925 128.381 97.3985C128.281 97.5045 128.188 97.5978 128.103 97.6769C128.182 97.7682 128.271 97.8594 128.372 97.9506C128.473 98.0419 128.589 98.1392 128.723 98.2425C128.942 98.0298 129.124 97.8171 129.27 97.6045C129.13 97.471 129.013 97.3583 128.919 97.267C128.824 97.1758 128.753 97.1027 128.705 97.0483V97.0476Z" fill="#C52430"/>
<path d="M129.616 96.4647C129.64 96.4647 129.664 96.4647 129.688 96.4647C129.691 96.4647 129.695 96.4647 129.698 96.4647C129.699 96.4647 129.699 96.4647 129.7 96.4647C130.841 96.462 131.782 96.3983 132.524 96.2735C133.284 96.146 133.885 95.9696 134.33 95.7449C134.518 95.9636 134.754 96.1387 135.036 96.2688C135.289 96.3862 135.546 96.4499 135.807 96.462C135.813 96.4627 135.818 96.4647 135.825 96.4647C135.844 96.4647 135.864 96.4647 135.883 96.4647C135.888 96.4647 135.893 96.4647 135.898 96.4647C135.899 96.4647 135.901 96.4647 135.902 96.4647C136.253 96.462 136.564 96.4412 136.833 96.4016C137.121 96.3594 137.393 96.2802 137.648 96.1648C138.146 96.358 138.761 96.4573 139.489 96.464C139.493 96.464 139.495 96.4654 139.499 96.4654C139.508 96.4654 139.516 96.4647 139.525 96.4647C139.54 96.4647 139.556 96.4654 139.571 96.4654C139.58 96.4654 139.586 96.464 139.593 96.4627C139.845 96.456 140.067 96.4244 140.259 96.3654C140.475 96.2983 140.62 96.2225 140.693 96.1373C140.723 96.095 140.753 96.0521 140.784 96.0098C140.814 95.9676 140.848 95.9186 140.884 95.8643C141.26 96.2353 141.676 96.4338 142.13 96.462C142.139 96.464 142.149 96.466 142.16 96.466C142.179 96.466 142.197 96.466 142.216 96.466C142.224 96.466 142.233 96.466 142.242 96.466C142.244 96.466 142.246 96.4654 142.249 96.4647C142.49 96.46 142.696 96.4345 142.866 96.3882C143.058 96.3366 143.184 96.2654 143.245 96.1742C143.354 96.0038 143.438 95.8247 143.496 95.6362C143.553 95.4477 143.582 95.2685 143.582 95.0981C143.582 94.8003 143.577 94.4769 143.569 94.1274C143.559 93.7779 143.546 93.3995 143.528 92.9923C143.51 92.5549 143.493 92.1155 143.477 91.6747C143.462 91.2339 143.445 90.7918 143.427 90.3484C143.263 90.4396 143.102 90.5322 142.944 90.6268C142.786 90.7214 142.64 90.82 142.507 90.9233C142.634 91.6895 142.74 92.3395 142.821 92.8742C142.903 93.4089 142.963 93.8282 142.999 94.1321C143.023 94.3266 143.046 94.5212 143.068 94.7157C143.089 94.9103 143.112 95.1048 143.136 95.2994C142.799 95.4389 142.487 95.5107 142.2 95.5168C142.028 95.5141 141.865 95.4933 141.714 95.4544C141.549 95.4121 141.382 95.3423 141.213 95.2451C141.286 95.0867 141.358 94.9277 141.431 94.7667C141.504 94.6057 141.574 94.4494 141.641 94.2971C141.544 94.224 141.437 94.1878 141.322 94.1878C141.237 94.1878 141.161 94.2072 141.094 94.2468C141.027 94.2864 140.957 94.379 140.884 94.5252C140.775 94.7318 140.687 94.8975 140.62 95.0223C140.553 95.1471 140.483 95.2363 140.41 95.2913C140.218 95.441 139.921 95.5161 139.519 95.5188C139.38 95.5188 139.246 95.5154 139.12 95.5101C138.977 95.504 138.848 95.5007 138.732 95.5007C138.909 95.2457 138.997 94.9754 138.997 94.6896C138.997 94.434 138.945 94.167 138.842 93.8872C138.745 93.6075 138.615 93.3827 138.454 93.2123C138.293 93.0419 138.133 92.9567 137.976 92.9567C137.787 92.9567 137.599 93.0023 137.41 93.0936C137.222 93.1848 137.045 93.3096 136.882 93.4673C136.717 93.6256 136.58 93.8047 136.471 94.0053C136.447 94.0543 136.421 94.1375 136.393 94.2562C136.366 94.3749 136.344 94.4991 136.329 94.6299C136.314 94.7607 136.307 94.8714 136.307 94.9626C136.307 95.1391 136.374 95.3182 136.507 95.5007C136.404 95.5067 136.296 95.5114 136.184 95.5141C136.09 95.5168 135.989 95.5181 135.885 95.5181C135.543 95.5161 135.228 95.4376 134.939 95.2813C135.225 94.9955 135.368 94.6674 135.368 94.2964C135.368 94.1448 135.261 93.9382 135.049 93.6766C134.836 93.4277 134.596 93.2298 134.328 93.0842C134.061 92.9386 133.814 92.8655 133.59 92.8655C133.298 92.8655 132.966 92.9916 132.596 93.2439C132.225 93.4961 131.824 93.8684 131.392 94.3609C131.386 94.2334 131.376 94.0845 131.36 93.9141C131.345 93.7437 131.328 93.5558 131.31 93.3485C131.304 93.2452 131.295 93.1224 131.282 92.9795C131.27 92.8366 131.258 92.6891 131.246 92.5374C131.234 92.3858 131.222 92.2335 131.21 92.0819C131.198 91.9303 131.186 91.7934 131.174 91.6713L131.447 91.4614C131.368 91.2427 131.302 91.0468 131.247 90.873C131.192 90.6993 131.14 90.5248 131.092 90.3491C130.842 90.3672 130.644 90.4524 130.495 90.6047C130.346 90.757 130.271 90.9508 130.271 91.1883C130.271 91.2614 130.282 91.3755 130.304 91.5305C130.325 91.6854 130.361 91.9015 130.413 92.1779C130.465 92.4542 130.534 92.8145 130.622 93.2579C130.71 93.7021 130.818 94.2515 130.946 94.9083C130.873 94.9995 130.8 95.0968 130.727 95.2001C130.654 95.3034 130.578 95.4067 130.499 95.5101H130.061C129.929 95.5101 129.793 95.5127 129.656 95.5181C129.489 95.5154 129.327 95.4946 129.173 95.4557C129.006 95.4134 128.84 95.3437 128.675 95.2464C128.706 95.1853 128.744 95.1035 128.79 95.0002C128.835 94.8969 128.885 94.7848 128.94 94.6627C128.995 94.5413 129.046 94.4199 129.095 94.2978C129.004 94.2247 128.897 94.1884 128.775 94.1884C128.684 94.1884 128.607 94.2079 128.543 94.2475C128.479 94.2871 128.41 94.383 128.337 94.5346C128.216 94.7714 128.119 94.9512 128.046 95.0726C127.972 95.1941 127.885 95.2826 127.781 95.337C127.636 95.4161 127.438 95.4664 127.189 95.4872C126.957 95.5074 126.691 95.5174 126.396 95.5188C126.05 95.5161 125.734 95.4342 125.448 95.2732C125.448 94.7687 125.445 94.2642 125.439 93.7598C125.432 93.2553 125.426 92.7508 125.42 92.2463C125.329 92.3013 125.243 92.3556 125.161 92.4106C125.079 92.465 124.992 92.526 124.901 92.5931C124.81 92.6602 124.697 92.7454 124.564 92.848L124.609 93.1761C124.421 93.2553 124.213 93.3673 123.985 93.5136C123.757 93.6598 123.561 93.8087 123.396 93.9603C123.244 94.0938 123.141 94.2153 123.086 94.3253C123.05 94.3924 123.005 94.4923 122.95 94.6265C122.895 94.76 122.848 94.8895 122.808 95.0143C122.768 95.1391 122.749 95.2283 122.749 95.2833C122.749 95.3504 122.799 95.4289 122.899 95.5201C123 95.6113 123.123 95.6992 123.268 95.7844C123.414 95.8696 123.557 95.9367 123.697 95.985C123.788 96.0213 123.881 96.0501 123.975 96.0716C124.069 96.093 124.174 96.1111 124.289 96.1266C124.405 96.142 124.542 96.1588 124.7 96.1769L125.055 95.4658L125.119 95.7576C125.161 95.9823 125.296 96.1574 125.52 96.2815C125.725 96.3949 125.991 96.456 126.317 96.4667C126.322 96.4667 126.326 96.4687 126.332 96.4687C126.351 96.4687 126.368 96.4687 126.386 96.4687C126.396 96.4687 126.405 96.4687 126.414 96.4687C126.417 96.4687 126.418 96.468 126.421 96.468C126.706 96.466 126.965 96.4526 127.194 96.4278C127.446 96.4003 127.66 96.3533 127.836 96.2862C128.013 96.2192 128.146 96.1279 128.237 96.0125L128.337 95.8757C128.716 96.2433 129.134 96.4392 129.592 96.4654C129.599 96.4667 129.605 96.4687 129.614 96.4687L129.616 96.4647ZM137.138 94.381C137.271 94.2441 137.402 94.1395 137.53 94.0663C137.657 93.9932 137.772 93.957 137.876 93.957C137.943 93.957 138.015 94.0026 138.094 94.0938C138.186 94.1851 138.274 94.3146 138.359 94.4816C138.444 94.6487 138.504 94.8117 138.541 94.9693C138.292 95.182 137.988 95.343 137.63 95.4524C137.465 95.3973 137.306 95.3202 137.151 95.2202C136.996 95.1196 136.861 95.0029 136.745 94.8694C136.873 94.6809 137.004 94.5185 137.137 94.3816L137.138 94.381ZM132.388 94.2716C132.765 93.9952 133.093 93.857 133.373 93.857C133.549 93.857 133.713 93.8892 133.865 93.953C134.017 94.0167 134.172 94.1153 134.33 94.2495C134.488 94.383 134.656 94.5628 134.831 94.7875C134.521 94.8848 134.263 94.9666 134.056 95.0337C133.85 95.1008 133.673 95.1525 133.528 95.1887C133.382 95.2249 133.239 95.2585 133.099 95.2887C132.978 95.3195 132.83 95.3464 132.657 95.3705C132.484 95.3947 132.304 95.4148 132.119 95.4295C131.934 95.445 131.755 95.4584 131.586 95.4705C131.415 95.4825 131.27 95.4886 131.148 95.4886C131.598 94.9539 132.011 94.548 132.388 94.2716ZM124.698 95.1793C124.603 95.1733 124.511 95.1646 124.419 95.1518C124.243 95.1216 124.064 95.0773 123.881 95.0196C123.699 94.962 123.516 94.8633 123.335 94.7231C123.651 94.389 124.119 94.1187 124.739 93.912C124.787 94.1616 124.833 94.3937 124.876 94.6097C124.918 94.8258 124.958 95.0217 124.994 95.1981C124.891 95.1921 124.792 95.186 124.698 95.18V95.1793Z" fill="#C52430"/>
<path d="M138.172 91.9108C138.278 91.7921 138.365 91.6814 138.432 91.5781C138.298 91.4506 138.178 91.3332 138.072 91.2272C137.965 91.1212 137.872 91.0253 137.794 90.9401C137.715 91.0373 137.621 91.144 137.511 91.2594C137.402 91.3748 137.275 91.5056 137.128 91.6512C137.293 91.8397 137.52 92.0524 137.812 92.2892C137.946 92.1557 138.066 92.0296 138.172 91.9108Z" fill="#C52430"/>
<path d="M141.255 93.0044C141.361 92.8856 141.448 92.7749 141.514 92.6716C141.381 92.5442 141.261 92.4268 141.154 92.3208C141.047 92.2148 140.955 92.1188 140.876 92.0336C140.797 92.1309 140.703 92.2376 140.594 92.353C140.484 92.4684 140.357 92.5992 140.211 92.7448C140.375 92.9333 140.602 93.1459 140.894 93.3828C141.028 93.2492 141.148 93.1231 141.255 93.0044Z" fill="#C52430"/>
<path d="M145.826 90.8804C145.765 90.6892 145.714 90.5115 145.671 90.3471C145.501 90.3592 145.348 90.3974 145.211 90.4611C145.074 90.5249 144.971 90.6148 144.901 90.7302C144.831 90.8456 144.805 90.9797 144.823 91.1313C144.866 91.5446 144.903 91.9424 144.933 92.3255C144.963 92.7085 144.992 93.1064 145.019 93.5196C145.047 93.9329 145.074 94.3783 145.101 94.8553C145.129 95.3323 145.151 95.869 145.17 96.4647L145.698 96.3916C145.728 95.7046 145.749 95.076 145.757 94.5045C145.767 93.9335 145.769 93.4136 145.767 92.9454C145.763 92.4771 145.753 92.0578 145.734 91.6875L146.026 91.4594C145.953 91.2648 145.886 91.0716 145.826 90.8804H145.826Z" fill="#C52430"/>
<path d="M152.528 93.3559C152.747 93.1432 152.929 92.9306 153.075 92.7179C152.935 92.5844 152.818 92.4717 152.724 92.3804C152.629 92.2892 152.558 92.2161 152.51 92.1617C152.394 92.2892 152.286 92.4066 152.186 92.5126C152.086 92.6193 151.993 92.7119 151.908 92.791C151.987 92.8823 152.076 92.9735 152.177 93.0647C152.278 93.156 152.394 93.2532 152.528 93.3566V93.3559Z" fill="#C52430"/>
<path d="M151.251 93.4921C151.366 93.3827 151.47 93.2747 151.561 93.1687C151.652 93.0627 151.734 92.9574 151.807 92.8541C151.667 92.7266 151.55 92.6159 151.456 92.5213C151.362 92.4274 151.291 92.3529 151.242 92.2979C151.133 92.4073 151.028 92.5153 150.928 92.6213C150.827 92.728 150.728 92.8266 150.631 92.9178C150.704 93.003 150.792 93.0929 150.895 93.1868C150.999 93.2814 151.117 93.3827 151.251 93.4921Z" fill="#C52430"/>
<path d="M149.765 93.702H149.382C149.279 94.067 149.227 94.4011 149.227 94.705C149.227 95.2947 149.416 95.7442 149.793 96.0541C150.17 96.364 150.722 96.519 151.452 96.519C151.901 96.519 152.339 96.4855 152.765 96.4184C153.19 96.3513 153.585 96.2574 153.95 96.1359C154.315 96.0145 154.631 95.8683 154.898 95.6985C154.995 95.5161 155.077 95.3296 155.144 95.1377C155.211 94.9465 155.244 94.7868 155.244 94.6594C155.244 94.5621 155.231 94.4299 155.203 94.2629C155.176 94.0958 155.136 93.8751 155.084 93.6021C155.033 93.3284 154.964 92.9909 154.879 92.5904C154.666 92.6998 154.487 92.8366 154.341 93.001C154.196 93.1653 154.122 93.317 154.122 93.4565C154.122 93.5236 154.142 93.6054 154.181 93.7027C154.221 93.8 154.271 93.9154 154.332 94.0489C154.393 94.1824 154.464 94.3347 154.546 94.5044C154.628 94.6748 154.693 94.8298 154.742 94.9693C154.322 95.1578 153.853 95.3034 153.333 95.4067C152.813 95.51 152.283 95.5617 151.742 95.5617C151.499 95.5617 151.282 95.5483 151.09 95.5208C150.899 95.4932 150.73 95.4584 150.584 95.4161C150.292 95.3128 150.078 95.1652 149.942 94.974C149.805 94.7828 149.736 94.5104 149.736 94.1582C149.736 94.0911 149.739 94.0046 149.746 93.8986C149.752 93.7926 149.758 93.7269 149.764 93.7027L149.765 93.702Z" fill="#C52430"/>
<path d="M160.724 97.0476C160.608 97.1751 160.5 97.2925 160.4 97.3985C160.3 97.5045 160.207 97.5978 160.122 97.6769C160.201 97.7682 160.29 97.8594 160.391 97.9506C160.491 98.0419 160.608 98.1392 160.742 98.2425C160.96 98.0298 161.143 97.8171 161.288 97.6045C161.149 97.471 161.032 97.3583 160.938 97.267C160.843 97.1758 160.772 97.1027 160.724 97.0483V97.0476Z" fill="#C52430"/>
<path d="M159.457 97.1845C159.347 97.2939 159.243 97.4019 159.142 97.5079C159.041 97.6139 158.943 97.7132 158.845 97.8044C158.919 97.8896 159.006 97.9788 159.11 98.0734C159.213 98.1674 159.332 98.2693 159.465 98.3787C159.581 98.2693 159.684 98.1613 159.775 98.0553C159.867 97.9486 159.948 97.844 160.021 97.7407C159.881 97.6132 159.765 97.5018 159.671 97.4079C159.576 97.3133 159.505 97.2395 159.457 97.1845Z" fill="#C52430"/>
<path d="M161.636 96.4647C161.648 96.4647 161.661 96.464 161.673 96.4633C161.687 96.4633 161.703 96.4647 161.718 96.4647C161.726 96.4647 161.733 96.4627 161.74 96.4613C161.942 96.4539 162.129 96.4271 162.301 96.3781C162.502 96.3204 162.684 96.2433 162.848 96.1453C163.075 96.3446 163.411 96.4492 163.851 96.462C163.857 96.4627 163.862 96.4647 163.869 96.4647C163.882 96.4647 163.894 96.464 163.906 96.4633C163.918 96.4633 163.929 96.4647 163.941 96.4647C163.949 96.4647 163.955 96.4633 163.962 96.462C164.11 96.4566 164.252 96.4378 164.388 96.405C164.553 96.3654 164.738 96.2882 164.944 96.1729C165.169 96.2822 165.435 96.3674 165.742 96.4278C166.049 96.4888 166.381 96.519 166.74 96.519L166.868 96.0997C167.092 96.3238 167.342 96.4432 167.618 96.4607C167.626 96.462 167.633 96.464 167.643 96.464C167.655 96.464 167.666 96.464 167.678 96.464C167.682 96.464 167.685 96.464 167.688 96.464C167.69 96.464 167.692 96.464 167.694 96.4633C168.064 96.46 168.413 96.4164 168.742 96.3319C169.085 96.244 169.42 96.1084 169.749 95.926C169.968 96.1024 170.238 96.2359 170.561 96.3272C170.865 96.413 171.216 96.458 171.611 96.4627C171.614 96.4627 171.616 96.4633 171.618 96.4633C171.625 96.4633 171.631 96.4633 171.638 96.4633C171.652 96.4633 171.667 96.4633 171.682 96.4633C171.689 96.4633 171.695 96.4613 171.701 96.4607C171.911 96.4546 172.107 96.4278 172.284 96.3768C172.484 96.3191 172.667 96.242 172.83 96.144C173.057 96.3426 173.392 96.4472 173.831 96.4607C173.837 96.462 173.843 96.4633 173.852 96.4633C173.869 96.4633 173.886 96.4633 173.903 96.4633C173.911 96.4633 173.917 96.4633 173.925 96.4633C173.927 96.4633 173.929 96.4627 173.932 96.4627C174.176 96.458 174.386 96.4325 174.558 96.3862C174.749 96.3345 174.875 96.2634 174.936 96.1722C175.046 96.0018 175.13 95.8227 175.187 95.6341C175.245 95.4456 175.274 95.2665 175.274 95.0961C175.274 94.7982 175.269 94.4749 175.26 94.1254C175.251 93.7758 175.238 93.3975 175.219 92.9903C175.201 92.5529 175.185 92.1134 175.169 91.6727C175.154 91.2319 175.137 90.7898 175.119 90.3464C174.954 90.4376 174.793 90.5302 174.636 90.6248C174.477 90.7194 174.332 90.818 174.198 90.9213C174.326 91.6874 174.431 92.3375 174.513 92.8722C174.595 93.4069 174.655 93.8262 174.691 94.1301C174.715 94.3246 174.738 94.5192 174.759 94.7137C174.781 94.9083 174.803 95.1028 174.828 95.2974C174.489 95.4376 174.176 95.51 173.887 95.5154C173.515 95.51 173.202 95.4255 172.949 95.2611C172.943 95.1028 172.94 94.9378 172.94 94.764V94.1395C172.94 93.6108 172.941 93.103 172.945 92.6166C172.947 92.1302 172.949 91.6915 172.949 91.299V90.3464C172.785 90.4316 172.626 90.5195 172.471 90.6107C172.316 90.7019 172.168 90.8052 172.029 90.9206C172.047 91.1333 172.065 91.3419 172.084 91.5452C172.102 91.7492 172.123 91.9511 172.148 92.1517C172.209 92.8145 172.27 93.4096 172.335 93.9389C172.398 94.4675 172.457 94.9297 172.512 95.3249C172.373 95.3859 172.228 95.4329 172.079 95.4664C171.935 95.4986 171.786 95.5154 171.634 95.5161C171.411 95.5154 171.209 95.508 171.031 95.4939C170.839 95.4792 170.668 95.453 170.515 95.4168C170.752 95.2102 170.936 94.9975 171.067 94.7788C171.198 94.5601 171.263 94.332 171.263 94.0952C171.263 93.8765 171.196 93.6698 171.062 93.4753C170.935 93.2807 170.757 93.1271 170.529 93.0151C170.301 92.9024 170.056 92.8467 169.795 92.8467C169.509 92.8467 169.221 92.8984 168.929 93.0017C168.734 93.0627 168.561 93.1385 168.409 93.2298C168.256 93.321 168.136 93.421 168.049 93.5303C167.961 93.6397 167.916 93.7671 167.916 93.9134C167.916 94.1019 167.989 94.275 168.135 94.4333L168.29 94.3239C168.338 94.3602 168.387 94.4018 168.436 94.4467C168.484 94.4923 168.533 94.5426 168.581 94.597C168.648 94.658 168.719 94.7338 168.795 94.8251C168.871 94.9163 168.955 95.0317 169.046 95.1712L169.229 95.39C169.022 95.4389 168.786 95.4718 168.522 95.4906C168.269 95.508 167.989 95.5167 167.683 95.5174C167.545 95.5161 167.419 95.4497 167.305 95.3175C167.22 95.2202 167.138 95.0928 167.059 94.9344C166.98 94.7768 166.904 94.5943 166.831 94.3877C166.77 94.2173 166.712 94.0683 166.658 93.9409C166.603 93.8134 166.551 93.7101 166.503 93.6309C166.442 93.5155 166.378 93.4257 166.312 93.3619C166.245 93.2982 166.175 93.266 166.102 93.266C165.847 93.266 165.588 93.3659 165.327 93.5665C165.156 93.694 165.003 93.855 164.867 94.0496C164.73 94.2441 164.617 94.4494 164.529 94.6647C164.441 94.8808 164.388 95.0887 164.369 95.2893V95.3712C164.369 95.3953 164.372 95.4201 164.379 95.4443C164.294 95.4684 164.21 95.4866 164.128 95.4993C164.056 95.51 163.98 95.5154 163.901 95.5161C163.53 95.51 163.218 95.4262 162.965 95.2618C162.959 95.1035 162.956 94.9385 162.956 94.7647V94.1401C162.956 93.6115 162.957 93.1036 162.961 92.6173C162.963 92.1309 162.965 91.6921 162.965 91.2997V90.347C162.801 90.4322 162.642 90.5201 162.487 90.6114C162.332 90.7026 162.184 90.8059 162.045 90.9213C162.063 91.134 162.081 91.3426 162.1 91.5459C162.118 91.7498 162.14 91.9518 162.164 92.1523C162.225 92.8152 162.286 93.4102 162.351 93.9395C162.415 94.4682 162.474 94.9304 162.529 95.3256C162.389 95.3866 162.244 95.4336 162.095 95.4671C161.96 95.4973 161.821 95.5134 161.678 95.5161C161.51 95.5134 161.348 95.4933 161.193 95.4537C161.026 95.4114 160.86 95.3416 160.696 95.2444C160.726 95.1833 160.764 95.1015 160.81 94.9982C160.855 94.8949 160.906 94.7828 160.96 94.6607C161.015 94.5393 161.066 94.4179 161.115 94.2958C161.024 94.2226 160.917 94.1864 160.796 94.1864C160.705 94.1864 160.627 94.2059 160.563 94.2454C160.499 94.285 160.431 94.381 160.358 94.5326C160.236 94.7694 160.139 94.9492 160.066 95.0706C159.993 95.192 159.905 95.2806 159.802 95.3349C159.656 95.4141 159.458 95.4644 159.209 95.4852C158.98 95.5047 158.719 95.5147 158.429 95.5167C158.269 95.5154 158.122 95.4973 157.992 95.4624C157.855 95.4262 157.729 95.3651 157.614 95.2799L157.578 94.605C157.553 94.0885 157.535 93.5934 157.523 93.1191C157.511 92.6448 157.501 92.1798 157.495 91.7243C157.489 91.2688 157.477 90.8099 157.459 90.3477C157.295 90.4329 157.135 90.5228 156.981 90.6167C156.826 90.7113 156.675 90.8126 156.529 90.922C156.553 91.1957 156.581 91.5009 156.611 91.8384C156.641 92.1758 156.673 92.5173 156.707 92.8641C156.74 93.2103 156.772 93.5431 156.803 93.8624C156.833 94.1817 156.862 94.4655 156.889 94.7151C156.917 94.9646 156.94 95.1558 156.958 95.2893C156.982 95.5201 157.049 95.7227 157.158 95.8958C157.268 96.0689 157.427 96.2071 157.637 96.3104C157.825 96.4036 158.059 96.4539 158.338 96.4633C158.343 96.4633 158.347 96.4654 158.352 96.4654C158.37 96.4654 158.387 96.4654 158.405 96.4654C158.415 96.4654 158.424 96.4654 158.434 96.4654C158.437 96.4654 158.438 96.4647 158.441 96.4647C158.727 96.4627 158.985 96.4493 159.214 96.4244C159.466 96.3969 159.68 96.35 159.857 96.2829C160.033 96.2158 160.167 96.1245 160.258 96.0092L160.358 95.8723C160.736 96.2399 161.155 96.4358 161.612 96.462C161.619 96.4633 161.626 96.4654 161.634 96.4654L161.636 96.4647ZM169.157 94.3219C169.018 94.1824 168.908 94.0791 168.829 94.012C169.018 93.9207 169.19 93.8584 169.345 93.8248C169.5 93.7913 169.659 93.7745 169.823 93.7745C169.999 93.7745 170.145 93.8215 170.26 93.9161C170.376 94.0106 170.433 94.1361 170.433 94.2944C170.433 94.44 170.384 94.5829 170.288 94.7231C170.191 94.8633 170.054 94.9908 169.877 95.1062C169.834 95.0639 169.795 95.021 169.759 94.9787C169.722 94.9364 169.685 94.8935 169.649 94.8512C169.461 94.6386 169.296 94.4621 169.157 94.3226L169.157 94.3219ZM165.183 94.7184C165.31 94.5997 165.452 94.4903 165.607 94.3904C165.762 94.2904 165.924 94.2065 166.094 94.1395C166.124 94.4252 166.177 94.6956 166.254 94.9505C166.33 95.2061 166.422 95.4336 166.532 95.6341C166.155 95.5858 165.828 95.5154 165.552 95.4248C165.275 95.3336 165.046 95.2182 164.863 95.0787C164.948 94.9572 165.054 94.8372 165.183 94.7184Z" fill="#C52430"/>
<path d="M115.062 114.653C113.414 114.653 112.417 115.839 112.417 117.176C112.417 118.595 113.358 119.722 115.007 119.722C116.775 119.722 117.673 118.518 117.673 117.17C117.673 115.823 116.759 114.653 115.061 114.653L115.062 114.653ZM115.074 118.801C114.127 118.801 113.66 118.081 113.66 117.162C113.66 116.342 114.08 115.575 115.026 115.575C115.973 115.575 116.43 116.324 116.43 117.185C116.43 117.975 116.053 118.801 115.073 118.801L115.074 118.801Z" fill="#C52430"/>
<path d="M119.825 114.757H118.645V119.619H119.825V114.757Z" fill="#C52430"/>
<path d="M122.281 114.757H121.102V119.618H124.848L125.003 118.673H122.281V114.757Z" fill="#C52430"/>
<path d="M130.02 114.653C128.373 114.653 127.375 115.839 127.375 117.176C127.375 118.595 128.317 119.722 129.965 119.722C131.734 119.722 132.632 118.518 132.632 117.17C132.632 115.823 131.718 114.653 130.02 114.653L130.02 114.653ZM130.033 118.801C129.086 118.801 128.619 118.081 128.619 117.162C128.619 116.342 129.039 115.575 129.985 115.575C130.932 115.575 131.389 116.324 131.389 117.185C131.389 117.975 131.012 118.801 130.032 118.801L130.033 118.801Z" fill="#C52430"/>
<path d="M136.119 114.757H133.603V119.619H134.789V117.875H136.1C137.293 117.875 138.001 117.28 138.001 116.285C138.001 115.291 137.249 114.757 136.119 114.757ZM136.009 116.958H134.789V115.667H136.009C136.583 115.667 136.825 115.91 136.825 116.304C136.825 116.787 136.509 116.958 136.009 116.958Z" fill="#C52430"/>
<path d="M140.002 117.567H142.715V116.622H140.002V115.702H142.862V114.757H138.822V119.618H142.883L143.019 118.674H140.002V117.567Z" fill="#C52430"/>
<path d="M148.312 116.146C148.312 115.31 147.671 114.757 146.549 114.757H143.902V119.619H145.07V117.745H146.058C146.766 117.745 146.947 117.951 146.947 118.442V118.601C146.947 119.117 146.956 119.405 147.037 119.619H148.248C148.181 119.39 148.187 119.015 148.187 118.682V118.439C148.187 117.565 147.665 117.374 147.466 117.296C147.947 117.143 148.312 116.774 148.312 116.147V116.146ZM146.285 116.86H145.07V115.642H146.295C146.852 115.642 147.106 115.86 147.106 116.244C147.106 116.654 146.857 116.86 146.285 116.86H146.285Z" fill="#C52430"/>
<path d="M150.796 114.757L148.838 119.619H150.051L150.475 118.515H152.639L153.091 119.619H154.367L152.309 114.757H150.796ZM150.781 117.569C151.147 116.619 151.405 115.88 151.514 115.516H151.521C151.637 115.888 151.857 116.455 152.31 117.569H150.781H150.781Z" fill="#C52430"/>
<path d="M153.854 115.696H155.566V119.618H156.747V115.696H158.451V114.757H153.854V115.696Z" fill="#C52430"/>
<path d="M160.387 114.757H159.207V119.619H160.387V114.757Z" fill="#C52430"/>
<path d="M164.052 114.653C162.404 114.653 161.406 115.839 161.406 117.176C161.406 118.595 162.348 119.722 163.997 119.722C165.765 119.722 166.663 118.518 166.663 117.17C166.663 115.823 165.749 114.653 164.051 114.653L164.052 114.653ZM164.064 118.801C163.117 118.801 162.651 118.081 162.651 117.162C162.651 116.342 163.07 115.575 164.017 115.575C164.963 115.575 165.42 116.324 165.42 117.185C165.42 117.975 165.043 118.801 164.064 118.801L164.064 118.801Z" fill="#C52430"/>
<path d="M171.221 115.958C171.221 116.758 171.214 117.667 171.262 118.178H171.248C170.943 117.6 170.398 116.842 169.032 114.757H167.634V119.618H168.715V118.077C168.715 117.214 168.715 116.523 168.675 115.923H168.689C168.978 116.478 170.534 118.894 170.992 119.618H172.302V114.757H171.221V115.957V115.958Z" fill="#C52430"/>
<path d="M175.636 116.598C174.723 116.434 174.523 116.293 174.523 116.012C174.523 115.698 174.808 115.519 175.369 115.519C176.171 115.519 176.334 115.841 176.402 116.082H177.583C177.528 115.517 177.075 114.659 175.407 114.659C174.258 114.659 173.323 115.155 173.323 116.126C173.323 116.778 173.63 117.326 175.317 117.614C176.342 117.788 176.566 117.977 176.566 118.312C176.566 118.625 176.347 118.856 175.592 118.856C174.784 118.856 174.449 118.581 174.31 118.161H173.127C173.275 119.037 173.96 119.716 175.481 119.716C177.111 119.716 177.773 119.035 177.773 118.192C177.773 117.487 177.483 116.93 175.636 116.598H175.636Z" fill="#C52430"/>
<path d="M75.1036 104.706H68.7143V99.6728H65.4539V112.459H68.7143V106.868H75.1036V112.459H78.364V99.6728H75.1036V104.706Z" fill="#2D328F"/>
<path d="M86.3836 99.6728L80.0935 112.459H83.5525L84.8855 109.555H91.3406L92.7508 112.459H96.2976L89.8311 99.6728H86.3829H86.3836ZM85.8878 107.4L88.0688 102.656L90.294 107.4H85.8878Z" fill="#2D328F"/>
<path d="M110.585 109.965C109.807 108.97 109.188 108.279 108.729 107.889C108.27 107.499 107.688 107.142 106.983 106.816C108.4 106.653 109.465 106.259 110.177 105.634C110.89 105.009 111.246 104.217 111.246 103.257C111.246 102.501 111.011 101.83 110.541 101.243C110.071 100.656 109.445 100.247 108.663 100.017C107.88 99.7875 106.626 99.6721 104.9 99.6721H98.0374V112.458H101.298V107.121H101.959C102.708 107.121 103.255 107.169 103.6 107.265C103.945 107.361 104.272 107.539 104.58 107.797C104.889 108.056 105.462 108.683 106.299 109.677L108.657 112.459H112.556L110.585 109.965H110.585ZM103.712 105.081H101.299V101.836H103.844C105.165 101.836 105.959 101.851 106.223 101.88C106.752 101.95 107.161 102.117 107.452 102.382C107.741 102.646 107.887 102.994 107.887 103.424C107.887 103.808 107.777 104.128 107.556 104.384C107.336 104.639 107.031 104.82 106.642 104.924C106.253 105.029 105.276 105.081 103.712 105.081V105.081Z" fill="#2D328F"/>
<path d="M129.323 106.084C129.323 104.002 128.608 102.377 127.18 101.208C125.752 100.04 123.848 99.4554 121.468 99.4554C120.154 99.4554 118.994 99.6238 117.987 99.9613C117.231 100.211 116.535 100.595 115.9 101.112C115.264 101.63 114.763 102.215 114.396 102.865C113.904 103.75 113.658 104.842 113.658 106.145C113.658 108.18 114.367 109.777 115.784 110.937C117.202 112.097 119.111 112.678 121.513 112.678C123.914 112.678 125.779 112.095 127.197 110.929C128.614 109.763 129.323 108.148 129.323 106.084ZM124.702 109.358C123.868 110.099 122.801 110.47 121.502 110.47C120.203 110.47 119.13 110.097 118.285 109.349C117.441 108.602 117.019 107.504 117.019 106.057C117.019 104.609 117.43 103.485 118.252 102.755C119.075 102.026 120.158 101.661 121.502 101.661C122.846 101.661 123.924 102.021 124.735 102.742C125.546 103.463 125.952 104.556 125.952 106.021C125.952 107.486 125.535 108.616 124.701 109.357L124.702 109.358Z" fill="#2D328F"/>
<path d="M144.724 106.389V99.6734H141.463V106.746C141.463 107.758 141.416 108.482 141.32 108.918C141.225 109.354 140.942 109.722 140.472 110.022C140.002 110.321 139.304 110.471 138.379 110.471C137.454 110.471 136.75 110.313 136.226 109.996C135.7 109.679 135.368 109.259 135.229 108.736C135.148 108.41 135.107 107.698 135.107 106.599V99.6741H131.847V106.494C131.847 107.924 131.954 109.006 132.166 109.738C132.313 110.233 132.618 110.705 133.081 111.156C133.544 111.607 134.173 111.973 134.97 112.255C135.767 112.537 136.936 112.678 138.478 112.678C139.756 112.678 140.792 112.548 141.585 112.289C142.378 112.03 143.011 111.683 143.485 111.247C143.959 110.811 144.283 110.276 144.46 109.642C144.636 109.008 144.724 107.924 144.724 106.389H144.724Z" fill="#2D328F"/>
<path d="M151.376 111.836C152.632 112.396 154.105 112.677 155.793 112.677C157.122 112.677 158.435 112.478 159.731 112.079C161.027 111.681 162.017 111.22 162.7 110.696V105.603H155.672V107.757H159.407V109.38C158.915 109.682 158.325 109.939 157.639 110.151C156.952 110.364 156.268 110.47 155.585 110.47C154.204 110.47 153.088 110.09 152.236 109.332C151.384 108.573 150.958 107.435 150.958 105.917C150.958 104.51 151.378 103.449 152.219 102.734C153.06 102.019 154.193 101.661 155.618 101.661C156.557 101.661 157.342 101.843 157.97 102.206C158.598 102.57 159.026 103.065 159.253 103.693L162.492 103.214C162.169 102.039 161.443 101.119 160.316 100.453C159.189 99.7875 157.623 99.454 155.618 99.454C154.076 99.454 152.787 99.6667 151.752 100.091C150.394 100.643 149.362 101.437 148.657 102.472C147.952 103.507 147.599 104.69 147.599 106.021C147.599 107.248 147.915 108.383 148.547 109.427C149.178 110.471 150.122 111.273 151.378 111.834L151.376 111.836Z" fill="#2D328F"/>
<path d="M168.969 106.825H177.077V104.671H168.969V101.836H177.683V99.6728H165.708V112.459H177.99V110.305H168.969V106.825Z" fill="#2D328F"/>
<path d="M78.7149 88.2298C79.1872 88.2197 80.9281 88.1801 81.7117 86.988C81.9774 86.5841 82.0867 86.1226 82.0881 85.6704C84.8614 85.6912 87.6341 85.71 90.4068 85.7261C113.325 85.8616 136.245 85.8489 159.167 85.6872C161.342 85.6818 163.535 85.6872 165.728 85.6872C167.912 85.6885 170.096 85.6758 172.281 85.6644C172.359 85.6744 173.237 85.7771 173.812 85.1223C174.17 84.7144 174.209 84.2421 174.215 84.0838C174.161 81.2615 174.106 78.4385 174.052 75.6161C173.503 75.6336 172.954 75.651 172.405 75.6678C172.405 75.757 172.394 77.5536 172.383 79.4394C172.369 81.7351 172.357 83.898 172.357 84.0308C172.271 84.0469 172.183 84.0617 172.094 84.0764C172.095 84.0617 172.095 84.0462 172.093 84.0308C171.978 84.059 171.813 84.1006 171.65 84.1415C170.768 84.2509 169.961 84.2462 169.257 84.1858C169.764 83.0775 169.699 81.9759 169.648 80.8388C169.602 79.8372 169.218 78.368 167.166 78.0889C166.589 78.0111 165.752 78.0286 165.133 78.0265L165.117 76.8727C164.477 76.8599 163.837 76.8465 163.197 76.8338C163.192 77.2262 163.187 77.618 163.181 78.0104C159.094 77.9266 159.12 79.2167 158.818 81.1763C158.659 82.2094 158.876 83.2103 159.178 84.2301C133.472 84.3092 107.766 84.3018 82.0599 84.2086L82.0331 78.0145C81.4682 78.0118 80.8604 78.0017 80.2995 78.0118C80.2398 79.1737 80.6732 86.0474 79.6253 86.6244C79.357 86.772 78.3735 86.8089 77.9924 86.8391C78.0112 87.2919 78.0293 87.7447 78.0481 88.1982C78.2038 88.2164 78.4352 88.2358 78.7149 88.2298ZM165.233 79.4434C166.205 79.4434 166.976 79.5367 167.359 80.1176C168.065 81.1883 167.935 82.8756 167.294 83.9456C166.666 84.2435 166.036 84.1938 165.188 84.2166C165.174 82.6253 165.188 81.034 165.233 79.4434ZM161 80.1955C161.141 79.7889 161.593 79.6132 162.216 79.4414C162.712 79.4273 162.936 79.4045 163.266 79.5568C163.382 80.3189 163.354 83.3425 163.231 84.1059L163.058 84.1838C162.561 84.2294 162.446 84.2019 161.935 84.1489C160.08 83.4532 160.62 81.2883 161 80.1948L161 80.1955Z" fill="#2D328F"/>
<path d="M76.7689 78.3526C76.2832 77.9085 73.4944 78.0393 72.5257 78.0554C69.0036 78.3768 69.969 82.6884 70.2186 84.0704C70.6546 86.4856 74.4054 85.3457 75.1836 85.6443C75.2675 85.867 75.2608 86.0341 75.2159 86.1622C74.8254 87.2617 71.1055 86.7727 70.8029 86.7311C70.8096 87.1886 70.8163 87.6455 70.823 88.103C72.152 88.1983 74.9596 88.2499 76.0162 87.7548C77.1842 87.2081 77.264 85.6409 77.2815 84.8312C77.3016 83.9269 77.2875 83.042 77.2949 82.1397C77.2144 81.1817 77.6256 79.1369 76.7689 78.3533V78.3526ZM75.446 84.1898C75.026 84.3052 74.5168 84.2784 74.0365 84.2804C73.4112 84.2905 72.7303 84.3173 72.415 83.9363C71.4952 82.826 71.728 81.2179 72.1708 80.0425C72.2882 79.7306 72.6048 79.5884 73.0516 79.4549C73.7889 79.4394 74.7275 79.3703 75.3393 79.5863C75.6016 79.9386 75.6351 83.8074 75.4466 84.1885L75.446 84.1898Z" fill="#2D328F"/>
<path d="M69.4013 84.8902C69.4087 84.3609 69.4154 83.8316 69.4228 83.3023C69.1296 83.2862 68.8364 83.2707 68.5439 83.2546C68.446 82.0914 68.9746 78.9497 67.5202 78.2044C66.9298 77.9018 63.0395 77.9816 62.0566 78.0252C62.0499 78.4821 62.0432 78.9383 62.0365 79.3951C62.9811 79.418 65.8444 79.3166 66.4086 79.5199C67.0633 80.119 66.8178 82.5938 66.8084 83.4512C65.3191 83.4391 63.6835 83.3412 62.5766 84.0067C62.1908 84.2388 61.6025 84.701 61.4119 85.4812C61.1771 86.4439 61.6602 87.5723 62.4296 87.9682C62.7322 88.1238 63.1414 88.1439 63.9606 88.1848C64.4369 88.2083 64.832 88.1983 65.1024 88.1848C65.0997 87.7729 65.0963 87.3617 65.0937 86.9498C64.887 86.9598 64.608 86.9565 64.2839 86.9001C63.8633 86.827 63.4688 86.7586 63.2494 86.46C63.0737 86.2212 63.0871 85.9227 63.0905 85.8254C63.1421 84.4803 67.7315 84.9607 69.402 84.8902H69.4013Z" fill="#2D328F"/>
<path d="M177.064 85.6322L177.163 75.5323L175.344 75.5377C175.334 78.9269 175.323 82.3155 175.313 85.7047C175.896 85.6805 176.48 85.6564 177.064 85.6322Z" fill="#2D328F"/>
<path d="M67.0782 86.8491H65.7332V88.1942H67.0782V86.8491Z" fill="#2D328F"/>
</svg>
